<?xml version="1.0" ?><!DOCTYPE svg  PUBLIC '-//W3C//DTD SVG 1.1//EN'  'http://www.w3.org/Graphics/SVG/1.1/DTD/svg11.dtd'><svg fill="#fff" enable-background="new 0 0 512 448.205" height="448.205px" id="Layer_1" version="1.1" viewBox="0 0 512 448.205" width="512px" xml:space="preserve" xmlns="http://www.w3.org/2000/svg" xmlns:xlink="http://www.w3.org/1999/xlink"><g id="meanicons_x5F_10"><path d="M352.939,109.433c-5.127,2.362-10.888,4.997-17.054,7.909L84.049,0L62.483,9.823l186.513,150.701   c-58.692,30.314-122.51,65.119-159.035,88.754L6.23,192.36L0,195.218l67.646,69.906c-5.772,4.819-8.644,8.42-7.739,10.315   c0.838,1.97,5.421,2.144,12.887,0.961l8.154,96.957l6.248-2.856l12.176-100.498c41.861-11.953,110.043-37.113,171.463-61.476   l-9.123,239.678l21.597-9.776l77.193-266.904c6.229-2.748,12.005-5.336,17.186-7.631c80.727-36.716,140.633-78.661,133.78-93.66   C504.676,55.197,433.711,72.715,352.939,109.433z"/></g><g id="Layer_1_1_"/></svg>